<svg width="861" height="572" viewBox="0 0 861 572" fill="none" xmlns="http://www.w3.org/2000/svg">
<g clip-path="url(#clip0_805_111)">
<path d="M435.736 160.527C428.066 147.843 418.979 134.3 404.746 130.158C388.264 125.361 371.333 134.89 356.971 144.292C314.022 172.412 272.661 202.887 233.078 235.575L233.121 236.068C263.938 233.943 294.755 231.817 325.572 229.692C347.838 228.157 370.868 226.41 390.544 215.877C398.011 211.88 405.289 206.541 413.75 206.169C424.262 205.707 433.427 213.048 440.63 220.718C483.237 266.089 495.567 335.472 543.368 375.334C513.226 300.999 477.236 229.171 435.736 160.527Z" fill="#F2F2F2"/>
<path d="M697.636 545.355C692.924 539.405 690.999 538.012 686.351 532.007C648.508 483.063 612.939 432.466 579.643 380.215C557.027 344.728 535.533 308.56 515.16 271.711C505.461 254.192 496.028 236.536 486.861 218.742C479.747 204.945 472.792 191.066 465.996 177.104C464.053 173.116 462.164 169.11 460.285 165.095C455.857 155.652 451.512 146.164 446.845 136.85C441.529 126.235 435.057 115.105 425.293 107.973C420.85 104.594 415.537 102.55 409.974 102.079C402.026 101.565 394.693 104.847 387.799 108.432C337.36 134.733 290.139 167.708 247.429 205.229C204.609 242.835 166.335 285.321 133.387 331.821C132.379 333.26 129.996 331.885 131.013 330.437C135.019 324.771 139.105 319.167 143.27 313.624C195.059 244.746 258.559 185.515 330.87 138.638C343.035 130.754 355.429 123.24 368.052 116.095C374.414 112.493 380.804 108.936 387.304 105.599C393.675 102.326 400.44 99.3835 407.719 99.2735C432.489 98.8885 445.315 126.94 454.124 145.816C456.893 151.756 459.695 157.678 462.531 163.582C473.247 185.996 484.376 208.206 495.918 230.21C503.041 243.796 510.32 257.303 517.755 270.73C540.893 312.542 565.486 353.508 591.533 393.627C626.039 446.77 660.27 493.715 699.579 543.411C700.661 544.787 698.727 546.748 697.636 545.355Z" fill="#E4E4E4"/>
<path d="M244.984 191.378C243.545 189.774 242.114 188.17 240.666 186.565C229.244 173.933 216.987 161.447 201.302 154.205C193.823 150.643 185.658 148.75 177.375 148.659C168.813 148.686 160.443 150.932 152.532 154.076C148.791 155.571 145.133 157.267 141.531 159.073C137.415 161.144 133.372 163.354 129.348 165.581C121.793 169.762 114.337 174.125 106.979 178.672C92.339 187.72 78.1571 197.459 64.4337 207.889C57.3197 213.297 50.3524 218.883 43.532 224.646C37.1883 230 30.9729 235.497 24.8858 241.138C23.5841 242.339 21.6405 240.396 22.9422 239.195C24.5465 237.701 26.1691 236.216 27.7918 234.749C32.3754 230.605 37.0325 226.541 41.763 222.556C50.3891 215.277 59.2386 208.28 68.3115 201.563C82.4201 191.112 97.0144 181.371 112.094 172.338C119.63 167.827 127.27 163.507 135.013 159.375C137.351 158.128 139.716 156.909 142.108 155.754C147.537 153.016 153.178 150.719 158.976 148.888C167.189 146.231 175.879 145.377 184.452 146.385C192.73 147.589 200.705 150.348 207.957 154.516C223.358 163.125 235.303 176.435 246.927 189.426C248.101 190.746 246.166 192.698 244.984 191.378Z" fill="#E4E4E4"/>
<path d="M560.541 322.285L597.446 308.787L615.769 302.085C621.737 299.902 627.69 297.417 633.859 295.854C639.22 294.323 644.912 294.396 650.233 296.063C654.977 297.819 659.32 300.511 663.004 303.98C666.767 307.445 670.268 311.184 673.479 315.166C677.468 319.96 681.398 324.805 685.346 329.633C701.64 349.56 717.828 369.574 733.909 389.675C749.99 409.774 765.963 429.96 781.829 450.231C797.734 470.551 813.529 490.956 829.215 511.446C831.136 513.956 833.056 516.468 834.974 518.98C836.034 520.369 838.424 519 837.349 517.592C821.547 496.896 805.636 476.285 789.614 455.758C773.553 435.182 757.381 414.693 741.098 394.292C724.815 373.891 708.422 353.578 691.919 333.354C687.808 328.316 683.69 323.283 679.565 318.256C676.085 314.015 672.645 309.729 668.828 305.782C661.823 298.536 653.071 292.134 642.594 291.96C636.434 291.858 630.473 293.812 624.75 295.883C618.58 298.115 612.425 300.388 606.264 302.642L569.101 316.235L559.81 319.633C558.162 320.236 558.874 322.894 560.541 322.285Z" fill="#E4E4E4"/>
<path d="M196.443 170.1C177.688 160.462 153.671 162.35 136.438 174.392C169.31 180.063 201.822 187.651 233.808 197.117C220.525 189.334 210.135 177.138 196.443 170.1Z" fill="#F2F2F2"/>
<path d="M136.255 174.358L132.645 177.293C133.866 176.266 135.135 175.303 136.44 174.392C136.378 174.381 136.317 174.369 136.255 174.358Z" fill="#F2F2F2"/>
<path d="M661.614 322.42C657.981 317.998 654.054 313.367 648.62 311.571L643.547 311.771C682.165 380.01 734.321 439.637 796.814 486.992C751.747 432.135 706.681 377.277 661.614 322.42Z" fill="#F2F2F2"/>
<path d="M346.151 285.94C348.498 294.47 353.787 301.894 361.082 306.899C363.902 308.819 367.239 310.661 368.203 313.934C368.711 316.02 368.398 318.221 367.33 320.084C366.263 321.922 364.966 323.616 363.468 325.125L363.332 325.637C356.333 321.49 349.675 316.244 345.81 309.086C341.944 301.928 341.404 292.547 346.151 285.94Z" fill="#F2F2F2"/>
<path d="M579.151 488.94C581.498 497.47 586.787 504.894 594.082 509.899C596.902 511.819 600.239 513.661 601.203 516.934C601.711 519.02 601.398 521.221 600.33 523.084C599.263 524.922 597.966 526.616 596.468 528.125L596.332 528.637C589.333 524.49 582.675 519.244 578.81 512.086C574.944 504.928 574.404 495.547 579.151 488.94Z" fill="#F2F2F2"/>
<path d="M114.151 474.94C116.498 483.47 121.787 490.894 129.082 495.899C131.902 497.819 135.239 499.661 136.203 502.934C136.711 505.02 136.398 507.221 135.33 509.084C134.263 510.922 132.966 512.616 131.468 514.125L131.332 514.637C124.333 510.49 117.675 505.244 113.81 498.086C109.944 490.928 109.404 481.547 114.151 474.94Z" fill="#F2F2F2"/>
<path d="M649.25 102C677.417 102 700.25 79.1665 700.25 51C700.25 22.8335 677.417 0 649.25 0C621.083 0 598.25 22.8335 598.25 51C598.25 79.1665 621.083 102 649.25 102Z" fill="#5463EC"/>
<path d="M741.282 11.8707C716.566 8.52973 688.347 21.8894 681.941 45.9942C680.327 41.7084 677.392 38.0467 673.56 35.5382C669.728 33.0298 665.198 31.8044 660.624 32.0391C656.05 32.2738 651.67 33.9564 648.115 36.8439C644.56 39.7315 642.015 43.6743 640.848 48.1029L643.677 50.1296C696.645 61.5839 751.474 61.336 804.336 49.4032C787.143 31.3343 765.999 15.2116 741.282 11.8707Z" fill="#F0F0F0"/>
<path d="M635.282 79.8707C610.566 76.5297 582.347 89.8894 575.941 113.994C574.327 109.708 571.392 106.047 567.56 103.538C563.728 101.03 559.198 99.8044 554.624 100.039C550.05 100.274 545.67 101.956 542.115 104.844C538.56 107.731 536.015 111.674 534.848 116.103L537.677 118.13C590.645 129.584 645.474 129.336 698.336 117.403C681.143 99.3343 659.999 83.2116 635.282 79.8707Z" fill="#F0F0F0"/>
<path d="M851.012 92.7278C850.909 92.728 850.807 92.7122 850.71 92.6809C586.303 9.06277 353.266 19.9973 204.33 43.8948C184.062 47.1458 163.739 50.9006 143.926 55.0559C138.868 56.1155 133.621 57.2512 128.33 58.4338C122.011 59.8411 115.776 61.2903 109.797 62.7395C107.215 63.3509 104.684 63.9671 102.203 64.5882C98.4443 65.5159 94.6309 66.4827 90.543 67.5451C85.9751 68.7229 81.334 69.9582 76.7456 71.217C76.7288 71.2229 76.7117 71.2278 76.6943 71.2317L76.6948 71.2327C71.5122 72.6477 66.3569 74.1038 61.3716 75.5579C58.6733 76.3372 56.0679 77.1057 53.5723 77.8645C53.2935 77.9417 53.0464 78.0159 52.7959 78.0921L52.2598 78.2551C51.9492 78.3499 51.6426 78.4426 51.336 78.5305L51.3164 78.5364L51.3169 78.5374L50.5054 78.7894C49.5376 79.0824 48.5933 79.3685 47.6646 79.6536C23.1196 87.2201 9.62647 92.6029 9.49317 92.6556C9.37127 92.7045 9.24095 92.7288 9.10964 92.7273C8.97832 92.7258 8.84859 92.6984 8.72785 92.6468C8.60711 92.5952 8.49771 92.5203 8.40592 92.4263C8.31413 92.3324 8.24174 92.2213 8.19288 92.0994C8.14401 91.9775 8.11965 91.8472 8.12116 91.7159C8.12267 91.5846 8.15002 91.4549 8.20166 91.3341C8.25331 91.2134 8.32822 91.104 8.42214 91.0122C8.51606 90.9204 8.62713 90.848 8.74903 90.7991C8.88331 90.7464 22.4424 85.3363 47.0767 77.7415C48.0088 77.4554 48.9556 77.1693 49.9263 76.8753L50.6802 76.6409C50.7061 76.6312 50.7319 76.6234 50.7583 76.6156C51.0635 76.5286 51.3682 76.4359 51.6777 76.3421L52.2148 76.179C52.4824 76.098 52.7461 76.0179 53.0161 75.9437C55.4946 75.1898 58.1089 74.4193 60.814 73.637C65.8013 72.182 70.9614 70.7259 76.148 69.3089C76.1641 69.3031 76.1807 69.2991 76.1968 69.2943C80.8013 68.0316 85.4595 66.7903 90.042 65.6087C94.1363 64.5452 97.957 63.5765 101.722 62.6468C104.213 62.0267 106.75 61.4092 109.331 60.7943C115.316 59.3431 121.564 57.8919 127.894 56.4818C133.193 55.2982 138.45 54.1595 143.516 53.0989C163.359 48.9368 183.714 45.1761 204.013 41.9202C353.162 17.9886 586.534 7.03638 851.312 90.7747C851.54 90.8465 851.735 90.9975 851.861 91.2003C851.987 91.403 852.036 91.6442 852 91.8802C851.963 92.1162 851.844 92.3314 851.663 92.4868C851.481 92.6423 851.25 92.7278 851.012 92.7278Z" fill="#CCCCCC"/>
<path d="M262.989 419.84C262.642 418.827 262.059 417.912 261.289 417.17C261.004 416.906 260.696 416.668 260.369 416.46C257.759 414.72 253.859 414.33 251.379 416.46C251.129 416.676 250.898 416.914 250.689 417.17C249.949 418.08 249.189 418.97 248.409 419.84C247.129 421.3 245.819 422.71 244.449 424.08C244.059 424.46 243.669 424.85 243.269 425.23C243.039 425.46 242.809 425.68 242.579 425.9C241.699 426.74 240.799 427.55 239.889 428.35C239.409 428.78 238.929 429.2 238.439 429.61C237.709 430.22 236.979 430.83 236.239 431.42C236.169 431.47 236.099 431.52 236.029 431.58C236.009 431.59 235.999 431.61 235.979 431.62C235.969 431.62 235.959 431.62 235.949 431.64C235.922 431.65 235.897 431.668 235.879 431.69C235.659 431.84 235.509 431.94 235.399 432.03C235.439 432.01 235.479 431.98 235.519 431.96C235.339 432.1 235.149 432.24 234.969 432.38C233.219 433.67 231.429 434.91 229.599 436.07C225.071 438.967 220.315 441.493 215.379 443.62C215.049 443.75 214.709 443.89 214.369 444.02C201.443 449.315 187.422 451.381 173.519 450.04C172.099 449.93 170.679 449.78 169.259 449.59C167.619 449.35 165.989 449.06 164.369 448.73C158.201 447.499 152.167 445.677 146.349 443.29C139.071 439.957 132.149 435.896 125.689 431.17C124.689 430.46 123.679 429.75 122.669 429.06C123.819 426.24 124.949 423.42 126.049 420.58C126.599 419.21 127.129 417.84 127.649 416.46C131.739 405.83 135.579 395.1 139.259 384.33C142.979 373.42 146.489 362.446 149.789 351.41C150.129 350.29 150.459 349.17 150.779 348.05C152.509 342.22 154.169 336.376 155.759 330.52C155.909 329.95 156.069 329.39 156.209 328.82C156.669 327.14 157.119 325.46 157.559 323.78C158.559 319.99 156.299 315.46 152.319 314.55C150.402 314.058 148.37 314.33 146.65 315.308C144.93 316.285 143.657 317.892 143.099 319.79C142.669 321.41 142.239 323.02 141.799 324.64C139.689 332.47 137.469 340.273 135.139 348.05C134.799 349.17 134.459 350.29 134.119 351.41C128.979 368.35 123.335 385.12 117.189 401.72C116.449 403.73 115.699 405.733 114.939 407.73C114.569 408.71 114.199 409.69 113.819 410.67C113.089 412.6 112.339 414.53 111.589 416.46C111.159 417.59 110.719 418.72 110.279 419.84C109.989 420.55 109.709 421.26 109.429 421.96C106.577 420.936 103.623 420.225 100.619 419.84L100.139 419.78C97.809 419.499 95.453 419.52 93.1286 419.84C89.6496 420.246 86.3023 421.411 83.3233 423.253C80.3443 425.095 77.8062 427.569 75.8886 430.5C71.1186 438.01 71.1786 448.75 77.8686 455.13C84.7586 461.7 95.1886 461.65 103.299 457.54C107.596 455.215 111.22 451.818 113.819 447.68C114.814 446.18 115.729 444.627 116.559 443.03C116.769 443.17 116.979 443.31 117.189 443.46C117.989 444.02 118.789 444.59 119.579 445.15C124.182 448.484 129.032 451.463 134.089 454.06C144.961 459.465 156.664 463.004 168.709 464.53C168.979 464.56 169.239 464.6 169.509 464.63C170.839 464.8 172.179 464.93 173.519 465.04C192.741 466.488 211.986 462.555 229.099 453.68C230.549 452.93 231.985 452.143 233.409 451.32C235.619 450.04 237.779 448.68 239.889 447.24C241.039 446.46 242.159 445.67 243.269 444.84C248.119 441.267 252.641 437.268 256.779 432.89C258.349 431.24 259.852 429.536 261.289 427.78C262.647 426.343 263.43 424.456 263.489 422.48C263.481 421.577 263.311 420.683 262.989 419.84ZM97.3986 443.66C97.6086 443.51 97.8186 443.35 98.0186 443.19C97.9586 443.34 97.6686 443.51 97.3986 443.66ZM100.609 440.43C100.379 440.69 100.169 440.95 99.9386 441.21C99.2389 441.993 98.4872 442.728 97.6886 443.41C97.5786 443.51 97.4586 443.61 97.3386 443.7C97.3373 443.7 97.3359 443.7 97.3347 443.7C97.3335 443.701 97.3324 443.702 97.3315 443.703C97.3305 443.704 97.3298 443.705 97.3293 443.706C97.3288 443.707 97.3286 443.708 97.3286 443.71C97.1841 443.774 97.0438 443.848 96.9085 443.93C96.4785 444.19 96.0386 444.43 95.5886 444.65C94.7075 444.974 93.8011 445.225 92.8786 445.4C92.1697 445.451 91.4583 445.458 90.7486 445.42H90.7286C90.2388 445.311 89.7548 445.178 89.2786 445.02C89.0386 444.9 88.8086 444.76 88.5786 444.62C88.4886 444.54 88.4085 444.46 88.3586 444.41C88.2609 444.321 88.1706 444.224 88.0887 444.12C88.0887 444.118 88.0884 444.117 88.0879 444.116C88.0874 444.115 88.0867 444.114 88.0858 444.113C88.0849 444.112 88.0837 444.111 88.0825 444.11C88.0813 444.11 88.08 444.11 88.0786 444.11C87.9686 443.91 87.8486 443.71 87.7386 443.51C87.7329 443.505 87.7294 443.497 87.7286 443.49C87.6486 443.24 87.5786 442.98 87.5186 442.72C87.497 442.263 87.5003 441.806 87.5286 441.35C87.6628 440.711 87.8433 440.083 88.0686 439.47C88.2711 439.035 88.5016 438.614 88.7586 438.21C88.7786 438.17 88.8786 438.01 88.9886 437.83C88.9986 437.82 88.9986 437.82 88.9986 437.81C89.1486 437.64 89.2987 437.46 89.4587 437.3C89.7287 437 90.0187 436.74 90.3087 436.47C90.8726 436.101 91.4569 435.763 92.0587 435.46C93.0133 435.121 93.9929 434.857 94.9886 434.67C96.457 434.553 97.9327 434.566 99.3987 434.71C100.787 434.951 102.157 435.288 103.499 435.72C102.686 437.298 101.76 438.815 100.729 440.26C100.689 440.32 100.649 440.38 100.609 440.43ZM89.4886 437.14C89.4005 437.281 89.2965 437.412 89.1786 437.53C89.2579 437.382 89.3629 437.25 89.4886 437.14Z" fill="#0B1887"/>
<path d="M232.927 317.71C232.837 320.85 232.747 323.99 232.657 327.13C232.467 334.1 232.271 341.073 232.067 348.05C231.857 355.9 231.637 363.747 231.407 371.59C231.297 375.64 231.184 379.69 231.067 383.74C230.757 394.65 230.451 405.557 230.147 416.46C230.117 417.59 230.077 418.71 230.047 419.84C229.897 425.25 229.747 430.66 229.597 436.07C229.427 441.94 229.261 447.81 229.097 453.68C228.977 458.08 228.854 462.483 228.727 466.89C227.827 498.82 226.927 530.75 226.027 562.68C225.989 564.657 225.187 566.543 223.789 567.941C222.39 569.34 220.505 570.142 218.527 570.18C216.543 570.164 214.645 569.369 213.242 567.966C211.839 566.563 211.043 564.664 211.027 562.68C211.527 544.72 212.034 526.76 212.547 508.8C212.997 492.56 213.454 476.32 213.917 460.08C214.067 454.73 214.217 449.377 214.367 444.02C214.597 435.96 214.824 427.9 215.047 419.84C215.077 418.71 215.117 417.59 215.147 416.46C215.167 415.47 215.197 414.49 215.227 413.5C215.667 397.85 216.107 382.197 216.547 366.54C216.727 360.38 216.901 354.217 217.067 348.05C217.267 341.02 217.467 333.993 217.667 326.97C217.757 323.88 217.837 320.8 217.927 317.71C217.965 315.733 218.768 313.847 220.166 312.449C221.564 311.05 223.45 310.248 225.427 310.21C227.412 310.226 229.31 311.021 230.713 312.424C232.116 313.827 232.911 315.726 232.927 317.71Z" fill="#0B1887"/>
<path d="M644.356 319.792C636.491 349.571 627.092 378.924 616.195 407.733C613.188 415.679 610.112 423.61 606.823 431.445L607.579 429.653C606.112 433.385 604.237 436.944 601.99 440.265C601.837 440.479 601.681 440.691 601.523 440.901C602.3 439.908 602.448 439.712 601.966 440.312C601.712 440.613 601.461 440.915 601.198 441.208C600.498 441.991 599.747 442.727 598.949 443.411C598.748 443.583 598.544 443.751 598.337 443.915L599.275 443.186C599.166 443.443 598.403 443.784 598.165 443.929C597.394 444.394 596.59 444.801 595.76 445.148L597.551 444.392C596.19 444.94 594.771 445.33 593.32 445.552L595.314 445.285C593.889 445.481 592.445 445.497 591.016 445.331L593.01 445.598C591.841 445.437 590.697 445.129 589.605 444.681L591.397 445.437C590.814 445.184 590.253 444.884 589.718 444.541C589.446 444.364 588.613 443.733 589.703 444.566C590.836 445.432 589.849 444.64 589.615 444.41C589.421 444.218 589.246 444.01 589.056 443.815C588.173 442.911 590.052 445.372 589.452 444.314C589.132 443.783 588.839 443.237 588.574 442.677L589.33 444.469C588.986 443.616 588.742 442.726 588.602 441.817L588.87 443.811C588.727 442.681 588.726 441.537 588.867 440.406L588.599 442.4C588.783 441.138 589.117 439.902 589.594 438.72L588.838 440.511C589.171 439.716 589.565 438.948 590.016 438.213C590.224 437.833 590.468 437.474 590.744 437.141C590.793 437.157 589.476 438.654 590.175 437.898C590.358 437.701 590.529 437.493 590.714 437.296C591.01 436.983 591.328 436.696 591.64 436.399C592.684 435.404 590.178 437.365 591.383 436.578C592.257 436.003 593.176 435.502 594.132 435.078L592.341 435.834C593.942 435.177 595.621 434.727 597.336 434.495L595.342 434.762C597.49 434.515 599.661 434.541 601.803 434.839L599.809 434.571C602.521 434.982 605.172 435.728 607.701 436.791L605.909 436.035C611.299 438.349 616.072 441.784 620.837 445.153C625.44 448.486 630.289 451.463 635.343 454.059C646.216 459.465 657.92 463.006 669.966 464.533C687.241 466.649 704.771 464.393 720.948 457.972C737.125 451.551 751.43 441.169 762.551 427.781C763.908 426.342 764.69 424.455 764.748 422.478C764.734 420.492 763.946 418.589 762.551 417.175C759.8 414.649 754.602 413.936 751.945 417.175C749.426 420.249 746.719 423.164 743.838 425.902C742.493 427.178 741.112 428.414 739.696 429.611C738.886 430.295 738.066 430.966 737.235 431.623C736.841 431.933 735.616 432.761 737.498 431.425C737.066 431.731 736.653 432.066 736.227 432.38C729.929 437.023 723.105 440.905 715.895 443.945L717.687 443.189C709.95 446.434 701.825 448.66 693.516 449.811L695.509 449.543C686.961 450.668 678.301 450.655 669.756 449.505L671.749 449.773C663.206 448.6 654.851 446.324 646.892 443.003L648.684 443.759C641.004 440.361 633.716 436.139 626.948 431.168C623.425 428.559 619.71 426.221 615.835 424.174C611.32 421.868 606.431 420.382 601.397 419.785C591.958 418.674 582.34 422.351 577.151 430.505C572.375 438.01 572.437 448.749 579.124 455.131C586.012 461.703 596.443 461.647 604.56 457.536C612.377 453.577 617.073 445.351 620.375 437.594C627.806 420.139 634.385 402.281 640.515 384.331C646.579 366.573 652.079 348.636 657.013 330.518C657.624 328.274 658.227 326.028 658.82 323.779C659.821 319.991 657.559 315.459 653.582 314.554C651.665 314.06 649.631 314.331 647.91 315.308C646.189 316.285 644.915 317.893 644.356 319.792Z" fill="#0B1887"/>
<path d="M719.189 317.71L716.489 413.503L713.804 508.797L712.285 562.681C712.302 564.665 713.098 566.563 714.501 567.966C715.903 569.368 717.801 570.164 719.785 570.181C721.762 570.143 723.648 569.34 725.046 567.942C726.445 566.544 727.247 564.658 727.285 562.681L729.985 466.888L732.67 371.594L734.189 317.71C734.172 315.726 733.376 313.828 731.973 312.425C730.57 311.022 728.673 310.227 726.689 310.21C724.712 310.248 722.826 311.051 721.428 312.449C720.029 313.847 719.227 315.733 719.189 317.71Z" fill="#0B1887"/>
<path opacity="0.2" d="M459.592 535.935H461.92V429.893H516.249V427.57H461.92V382.826H503.876C503.261 382.043 502.628 381.271 501.977 380.509H461.92V350.956C461.15 350.627 460.374 350.311 459.592 350.012V380.509H413.94V342.644C413.157 342.679 412.387 342.733 411.611 342.799V380.509H375.191V352.258C374.408 352.604 373.638 352.968 372.874 353.35V380.509H342.258V382.826H372.874V427.57H342.258V429.893H372.874V535.935H375.191V429.893C379.974 429.892 384.71 430.833 389.129 432.663C393.548 434.493 397.564 437.176 400.946 440.558C404.328 443.94 407.01 447.955 408.84 452.375C410.67 456.794 411.612 461.53 411.611 466.313V535.935H413.94V429.893H459.592V535.935ZM375.191 427.57V382.826H411.611V427.57H375.191ZM413.94 427.57V382.826H414.853C420.729 382.826 426.547 383.984 431.975 386.233C437.403 388.481 442.335 391.777 446.489 395.932C450.644 400.087 453.939 405.02 456.187 410.448C458.435 415.876 459.592 421.695 459.592 427.57H413.94Z" fill="black"/>
<path d="M445.369 504.14C442.437 517.219 435.414 529.023 425.319 537.84C424.579 538.48 423.839 539.1 423.069 539.71C421.199 539.88 419.343 540.053 417.499 540.23C415.969 540.37 414.459 540.52 412.959 540.66L412.689 540.69L412.499 539.05L411.739 532.41C408.791 527.597 406.964 522.182 406.392 516.566C405.821 510.95 406.521 505.278 408.439 499.97C411.079 492.85 415.859 486.56 420.559 480.32C427.049 471.7 433.359 463.18 433.589 452.67C436.783 456.757 439.438 461.237 441.489 466C439.554 466.911 437.814 468.192 436.369 469.77C435.959 470.22 435.549 470.85 435.829 471.39C436.069 471.85 436.669 471.96 437.189 472.02C438.439 472.15 439.699 472.28 440.949 472.41C441.949 472.52 442.949 472.62 443.949 472.73C445.159 476.701 445.98 480.78 446.399 484.91C447.073 491.334 446.726 497.824 445.369 504.14Z" fill="#0B1887"/>
<path d="M478.571 477.93C472.671 482.22 469.221 488.39 466.541 495.19C463.794 496.069 461.323 497.647 459.371 499.77C458.961 500.22 458.551 500.85 458.831 501.39C459.071 501.85 459.671 501.96 460.191 502.02C461.441 502.15 462.701 502.28 463.951 502.41C461.271 510.45 458.811 518.77 454.071 525.56C450.918 530.043 446.809 533.769 442.041 536.47C440.74 537.211 439.398 537.875 438.021 538.46C432.941 538.85 427.957 539.267 423.071 539.71C421.201 539.88 419.344 540.053 417.501 540.23C415.971 540.37 414.461 540.52 412.961 540.66C412.951 540.11 412.951 539.56 412.961 539.01C413.277 524.359 418.667 510.271 428.211 499.15C428.661 498.63 429.121 498.12 429.591 497.61C434.426 492.446 440.112 488.15 446.401 484.91C456.31 479.757 467.417 477.348 478.571 477.93Z" fill="#5463EC"/>
<path d="M419.231 535.1L418.081 538.5L417.501 540.23C415.971 540.37 414.461 540.52 412.961 540.66L412.691 540.69C411.031 540.86 409.381 541.03 407.731 541.2C407.301 540.7 406.871 540.19 406.451 539.67C396.013 527.03 391.003 510.772 392.515 494.45C394.027 478.127 401.938 463.067 414.521 452.56C413.201 459.47 414.741 466.09 417.271 472.66C417.001 472.77 416.741 472.88 416.491 473C414.555 473.911 412.816 475.191 411.371 476.769C410.961 477.219 410.551 477.85 410.831 478.39C411.071 478.85 411.671 478.96 412.191 479.019C413.441 479.149 414.701 479.279 415.951 479.409C416.951 479.519 417.951 479.619 418.951 479.729C419.421 479.779 419.891 479.83 420.361 479.88C420.431 480.03 420.491 480.17 420.561 480.32C423.411 486.5 426.481 492.709 428.211 499.149C428.644 500.765 428.985 502.405 429.231 504.06C430.001 509.652 429.502 515.346 427.771 520.72C426.039 526.093 423.121 531.008 419.231 535.1Z" fill="#5463EC"/>
<path d="M519.888 390.061C511.279 373.269 497.942 359.14 482.256 348.757C466.519 338.389 448.462 332.075 429.693 330.377C427.233 330.154 424.767 330.023 422.294 329.984C419.373 329.941 375.428 342.616 360.707 352.967C345.994 363.191 333.891 376.731 325.374 392.494C316.872 408.343 312.69 426.15 313.249 444.127C313.977 462.212 319.018 479.861 327.951 495.603C336.762 511.294 349.273 524.594 364.396 534.349C379.733 544.135 395.141 570.084 413.25 571C431.496 571.923 452.304 547.445 468.945 540.013C485.586 532.519 499.973 520.795 510.671 506.008C521.066 491.518 527.792 474.721 530.27 457.06C532.843 438.977 531.644 420.328 525.468 403.044C523.884 398.603 522.02 394.267 519.888 390.061C518.108 386.556 512.892 385.265 509.627 387.37C507.944 388.406 506.726 390.051 506.225 391.962C505.724 393.873 505.979 395.903 506.936 397.632C507.981 399.69 508.953 401.783 509.851 403.909L509.095 402.118C512.495 410.293 514.807 418.879 515.972 427.656L515.704 425.662C516.943 435.184 516.92 444.828 515.638 454.345L515.906 452.351C514.609 461.866 512.069 471.17 508.351 480.025L509.107 478.233C507.194 482.751 504.965 487.128 502.436 491.332C501.153 493.455 499.793 495.529 498.355 497.553C497.723 498.441 497.072 499.314 496.416 500.184C495.56 501.32 497.583 498.701 496.698 499.815C496.548 500.005 496.398 500.195 496.246 500.384C495.792 500.952 495.332 501.515 494.865 502.072C491.747 505.792 488.344 509.263 484.688 512.456C483.777 513.25 482.851 514.027 481.91 514.787C481.442 515.165 480.978 515.559 480.49 515.911C480.508 515.898 482.069 514.712 481.145 515.4C480.855 515.617 480.567 515.837 480.275 516.052C478.335 517.489 476.344 518.853 474.301 520.144C469.598 523.107 464.663 525.687 459.545 527.857L461.337 527.101C452.509 530.818 443.231 533.357 433.74 534.653L435.734 534.385C426.249 535.667 416.635 535.684 407.145 534.436L409.139 534.703C400.514 533.545 392.077 531.264 384.044 527.919L385.835 528.675C381.182 526.71 376.695 524.372 372.419 521.684C370.303 520.351 368.242 518.935 366.236 517.437C365.949 517.223 365.666 517.006 365.381 516.791C364.465 516.1 366.038 517.301 366.051 517.309C365.519 516.927 365.006 516.518 364.516 516.084C363.547 515.295 362.593 514.488 361.654 513.662C357.899 510.355 354.392 506.775 351.161 502.953C350.353 501.997 349.561 501.027 348.787 500.042C348.452 499.616 347.841 498.752 349.191 500.571C349.014 500.332 348.829 500.097 348.65 499.859C348.219 499.287 347.794 498.712 347.374 498.131C345.905 496.099 344.51 494.017 343.186 491.885C340.196 487.06 337.586 482.008 335.381 476.777L336.137 478.569C332.528 469.982 330.06 460.96 328.797 451.732L329.064 453.725C327.924 445.219 327.908 436.6 329.016 428.09L328.748 430.083C329.884 421.842 332.101 413.786 335.343 406.124L334.587 407.916C336.626 403.119 339.031 398.487 341.782 394.06C343.159 391.844 344.618 389.683 346.159 387.575C346.51 387.096 346.864 386.62 347.222 386.147C347.546 385.719 348.437 384.654 346.917 386.535C347.066 386.351 347.209 386.161 347.356 385.975C348.202 384.903 349.068 383.848 349.956 382.81C353.313 378.879 356.951 375.196 360.839 371.789C361.822 370.928 362.82 370.085 363.834 369.26C364.294 368.885 364.758 368.515 365.225 368.147C365.411 368.001 365.6 367.857 365.786 367.709C363.789 369.298 365.231 368.141 365.685 367.802C367.774 366.236 369.919 364.749 372.12 363.34C377.013 360.211 382.159 357.499 387.506 355.232L385.715 355.989C393.475 352.73 427.856 345.039 434.109 345.879L432.115 345.611C441.306 346.894 450.289 349.376 458.835 352.993L457.043 352.237C461.374 354.076 465.583 356.19 469.643 358.566C471.672 359.756 473.662 361.01 475.611 362.329C476.533 362.953 477.446 363.592 478.349 364.244C478.8 364.57 479.249 364.9 479.695 365.233C479.943 365.418 480.189 365.605 480.437 365.791C481.476 366.57 479.005 364.663 480.094 365.524C483.741 368.389 487.203 371.479 490.462 374.777C492.063 376.407 493.609 378.089 495.099 379.823C495.864 380.712 496.612 381.615 497.346 382.53C497.71 382.985 498.951 384.631 497.43 382.615C497.802 383.108 498.178 383.597 498.544 384.094C501.704 388.371 504.511 392.899 506.936 397.632C508.729 401.129 513.923 402.434 517.197 400.322C518.88 399.287 520.099 397.642 520.6 395.731C521.102 393.82 520.846 391.789 519.888 390.061Z" fill="#0B1887"/>
<path d="M432.499 512.456C431.725 512.491 430.958 512.288 430.303 511.874C429.649 511.459 429.137 510.853 428.838 510.138C428.539 509.423 428.467 508.634 428.632 507.876C428.797 507.119 429.19 506.431 429.759 505.905C429.855 505.526 429.923 505.254 430.018 504.875C429.984 504.792 429.95 504.71 429.916 504.628C426.436 496.33 404.23 519.461 403.27 527.259C402.848 530.707 403.026 534.201 403.798 537.587C396.605 521.897 392.87 504.844 392.846 487.584C392.844 483.253 393.085 478.925 393.567 474.621C393.965 471.092 394.517 467.589 395.224 464.11C399.079 445.237 407.356 427.547 419.375 412.494C426.249 412.878 432.273 411.83 432.855 398.509C432.958 396.139 434.716 394.087 435.103 391.753C434.447 391.839 433.78 391.892 433.124 391.935C432.919 391.946 432.704 391.957 432.5 391.968L432.423 391.971C431.701 392.004 430.986 391.827 430.363 391.462C429.74 391.097 429.236 390.56 428.911 389.916C428.586 389.271 428.454 388.546 428.531 387.828C428.609 387.111 428.892 386.431 429.347 385.87C429.63 385.521 429.914 385.173 430.197 384.825C430.628 384.287 431.069 383.759 431.499 383.222C431.549 383.17 431.596 383.117 431.639 383.06C432.134 382.447 432.629 381.844 433.124 381.231C432.22 379.829 431.005 378.655 429.574 377.8C424.614 374.895 417.772 376.907 414.19 381.393C410.597 385.879 409.919 392.172 411.167 397.777C412.394 402.546 414.424 407.072 417.17 411.16C416.901 411.504 416.621 411.838 416.352 412.182C411.436 418.504 407.151 425.292 403.558 432.45C404.575 424.511 392.147 395.842 387.341 389.769C381.568 382.475 369.73 385.659 368.713 394.905C368.703 394.995 368.693 395.084 368.684 395.174C369.398 395.576 370.096 396.004 370.78 396.456C371.639 397.03 372.305 397.85 372.69 398.808C373.075 399.767 373.161 400.819 372.937 401.828C372.714 402.837 372.191 403.754 371.437 404.46C370.684 405.167 369.734 405.629 368.713 405.786L368.608 405.802C359.053 419.446 389.686 454.957 397.354 446.984C393.745 457.212 391.481 467.865 390.619 478.677C390.131 485.055 390.16 491.463 390.705 497.836L390.673 497.611C388.969 483.728 359.742 463.088 351.207 464.807C346.29 465.798 341.447 465.572 342.194 470.532C342.206 470.611 342.218 470.69 342.23 470.77C343.555 471.309 344.845 471.931 346.092 472.631C346.806 473.033 347.505 473.461 348.188 473.913C349.047 474.487 349.713 475.307 350.098 476.265C350.483 477.224 350.569 478.277 350.346 479.285C350.122 480.294 349.6 481.211 348.846 481.918C348.092 482.624 347.142 483.086 346.121 483.243L346.017 483.259C345.941 483.27 345.877 483.281 345.802 483.292C341.452 498.258 373.709 522.412 393.319 514.726H393.33C395.274 523.171 398.089 531.392 401.732 539.254H431.747C431.854 538.921 431.951 538.577 432.048 538.243C429.27 538.418 426.481 538.252 423.743 537.748C425.97 535.016 428.196 532.262 430.423 529.529C430.473 529.478 430.52 529.424 430.563 529.368C431.693 527.969 432.833 526.582 433.963 525.183L433.963 525.181C434.024 520.895 433.532 516.618 432.5 512.457L432.499 512.456ZM398.128 444.843L398.144 444.822L398.128 444.864V444.843ZM391.48 504.775L391.222 504.194C391.232 503.775 391.232 503.355 391.222 502.925C391.222 502.807 391.2 502.688 391.2 502.57C391.297 503.312 391.383 504.055 391.49 504.797L391.48 504.775Z" fill="#0B1887"/>
<path d="M95.25 450C101.325 450 106.25 445.075 106.25 439C106.25 432.925 101.325 428 95.25 428C89.1749 428 84.25 432.925 84.25 439C84.25 445.075 89.1749 450 95.25 450Z" fill="#0B1887"/>
<path d="M227.25 570C233.325 570 238.25 565.075 238.25 559C238.25 552.925 233.325 548 227.25 548C221.175 548 216.25 552.925 216.25 559C216.25 565.075 221.175 570 227.25 570Z" fill="#0B1887"/>
<path d="M728.25 570C734.325 570 739.25 565.075 739.25 559C739.25 552.925 734.325 548 728.25 548C722.175 548 717.25 552.925 717.25 559C717.25 565.075 722.175 570 728.25 570Z" fill="#0B1887"/>
<path d="M755.25 430C761.325 430 766.25 425.075 766.25 419C766.25 412.925 761.325 408 755.25 408C749.175 408 744.25 412.925 744.25 419C744.25 425.075 749.175 430 755.25 430Z" fill="#0B1887"/>
<path d="M723.25 328C729.325 328 734.25 323.075 734.25 317C734.25 310.925 729.325 306 723.25 306C717.175 306 712.25 310.925 712.25 317C712.25 323.075 717.175 328 723.25 328Z" fill="#0B1887"/>
<path d="M264.25 419C264.243 421.81 263.156 424.51 261.215 426.541C259.273 428.572 256.625 429.778 253.818 429.911C251.011 430.044 248.261 429.093 246.136 427.254C244.012 425.416 242.675 422.831 242.403 420.034C242.131 417.237 242.945 414.443 244.676 412.23C246.406 410.016 248.922 408.553 251.702 408.143C254.481 407.732 257.312 408.407 259.609 410.025C261.906 411.644 263.492 414.084 264.04 416.84C264.181 417.551 264.251 418.275 264.25 419Z" fill="#0B1887"/>
<path d="M484.25 360C490.325 360 495.25 355.075 495.25 349C495.25 342.925 490.325 338 484.25 338C478.175 338 473.25 342.925 473.25 349C473.25 355.075 478.175 360 484.25 360Z" fill="#0B1887"/>
<path d="M375.25 349C375.243 351.81 374.156 354.51 372.215 356.541C370.273 358.572 367.625 359.778 364.818 359.911C362.011 360.044 359.261 359.093 357.136 357.254C355.012 355.416 353.675 352.831 353.403 350.034C353.131 347.237 353.945 344.443 355.676 342.23C357.406 340.016 359.922 338.553 362.702 338.143C365.481 337.732 368.313 338.407 370.609 340.025C372.906 341.644 374.492 344.084 375.04 346.84C375.181 347.551 375.251 348.275 375.25 349Z" fill="#0B1887"/>
<path d="M233.25 317C233.243 319.81 232.156 322.51 230.215 324.541C228.273 326.572 225.625 327.778 222.818 327.911C220.011 328.044 217.261 327.093 215.136 325.254C213.012 323.416 211.675 320.831 211.403 318.034C211.131 315.237 211.945 312.443 213.676 310.23C215.406 308.016 217.922 306.553 220.702 306.143C223.481 305.732 226.312 306.407 228.609 308.025C230.906 309.644 232.492 312.084 233.04 314.84C233.181 315.551 233.251 316.275 233.25 317Z" fill="#0B1887"/>
<path d="M599.25 454C605.325 454 610.25 449.075 610.25 443C610.25 436.925 605.325 432 599.25 432C593.175 432 588.25 436.925 588.25 443C588.25 449.075 593.175 454 599.25 454Z" fill="#0B1887"/>
<path d="M426.25 354C435.087 354 442.25 346.837 442.25 338C442.25 329.163 435.087 322 426.25 322C417.413 322 410.25 329.163 410.25 338C410.25 346.837 417.413 354 426.25 354Z" fill="#0B1887"/>
<path d="M858.941 570.84L1.19067 571.148C1.03431 571.148 0.879476 571.117 0.735016 571.057C0.590556 570.997 0.459305 570.909 0.34874 570.799C0.238175 570.688 0.150459 570.557 0.0906219 570.413C0.0307847 570.268 0 570.113 0 569.957C0 569.801 0.0307847 569.646 0.0906219 569.501C0.150459 569.357 0.238175 569.226 0.34874 569.115C0.459305 569.004 0.590556 568.917 0.735016 568.857C0.879476 568.797 1.03431 568.766 1.19067 568.766L858.941 568.459C859.256 568.46 859.558 568.586 859.78 568.809C860.003 569.032 860.128 569.334 860.128 569.65C860.128 569.965 860.003 570.267 859.78 570.49C859.558 570.714 859.256 570.839 858.941 570.84Z" fill="#CACACA"/>
</g>
<defs>
<clipPath id="clip0_805_111">
<rect width="860.131" height="571.148" fill="white"/>
</clipPath>
</defs>
</svg>
